<?xml version="1.0" encoding="UTF-8" standalone="no"?>
<!-- Created with Inkscape (http://www.inkscape.org/) -->

<svg
   version="1.1"
   id="svg1"
   width="1536"
   height="1024"
   viewBox="0 0 1536 1024"
   sodipodi:docname="Traveon.svg"
   inkscape:version="1.4.3 (0d15f75, 2025-12-25)"
   xmlns:inkscape="http://www.inkscape.org/namespaces/inkscape"
   xmlns:sodipodi="http://sodipodi.sourceforge.net/DTD/sodipodi-0.dtd"
   xmlns="http://www.w3.org/2000/svg"
   xmlns:svg="http://www.w3.org/2000/svg">
  <defs
     id="defs1" />
  <sodipodi:namedview
     id="namedview1"
     pagecolor="#ffffff"
     bordercolor="#000000"
     borderopacity="0.25"
     inkscape:showpageshadow="2"
     inkscape:pageopacity="0.0"
     inkscape:pagecheckerboard="0"
     inkscape:deskcolor="#d1d1d1"
     inkscape:zoom="0.75878906"
     inkscape:cx="741.31274"
     inkscape:cy="515.95367"
     inkscape:window-width="1920"
     inkscape:window-height="991"
     inkscape:window-x="-9"
     inkscape:window-y="-9"
     inkscape:window-maximized="1"
     inkscape:current-layer="g1" />
  <g
     inkscape:groupmode="layer"
     inkscape:label="Image"
     id="g1">
    <path
       style="fill:#013181;fill-opacity:1"
       d="m 587.07979,700.63578 v -10 h -4 c -3.33333,0 -4,-0.33333 -4,-2 0,-1.86763 0.66667,-2 10.07333,-2 9.05331,0 10.03974,0.1772 9.74168,1.75 -0.23177,1.22302 -1.45837,1.84346 -4.07332,2.06037 l -3.74169,0.31036 v 9.93964 c 0,9.27297 -0.13414,9.93963 -2,9.93963 -1.86666,0 -2,-0.66666 -2,-10 z m 23.93617,9.75 c -0.67431,-2.64077 -0.81544,-8.94856 -0.34679,-15.5 l 0.59016,-8.25 h 6.95569 c 6.13901,0 7.25783,0.30215 9.52915,2.57347 2.1425,2.1425 2.47421,3.18512 1.98075,6.22593 -0.32599,2.00885 -1.50725,4.3423 -2.62501,5.18543 -2.02916,1.5306 -2.02843,1.53868 0.47379,5.22102 3.08193,4.53546 3.08943,4.79415 0.13898,4.79415 -1.65379,0 -3.16481,-1.20539 -5.01419,-4 -1.90854,-2.88399 -3.34062,-4 -5.13288,-4 -2.23345,0 -2.48582,0.40609 -2.48582,4 0,3.33334 -0.33333,4 -2,4 -1.1,0 -2.02872,-0.1125 -2.06383,-0.25 z m 13.45687,-14 c 1.78262,-2.84444 -0.44181,-5.20145 -5.24488,-5.5575 l -4.14816,-0.30749 v 4.11499 4.115 l 4.14816,-0.3075 c 2.61348,-0.19373 4.55391,-0.95494 5.24488,-2.0575 z m 16.59409,13 c -0.007,-0.6875 2.13042,-6.07702 4.75,-11.97672 6.44652,-14.51856 7.40282,-14.52017 13.76995,-0.0233 2.59681,5.9125 4.94319,11.3125 5.21418,12 1.08618,2.75559 -3.84412,1.19756 -5.51777,-1.74367 -1.54514,-2.71541 -2.1824,-2.99427 -6.85566,-3 -4.82785,-0.006 -5.21801,0.18252 -6.19798,2.99367 -0.7038,2.01892 -1.71687,3 -3.09783,3 -1.12861,0 -2.05781,-0.5625 -2.06489,-1.25 z m 14.97096,-9.5 c -0.0231,-0.4125 -0.84069,-2.24842 -1.81696,-4.07982 l -1.77504,-3.32982 -1.6026,4.07982 -1.6026,4.07982 h 3.41956 c 1.88075,0 3.40069,-0.3375 3.37764,-0.75 z m 21.33173,0.49127 c -6.10258,-14.8445 -5.8522,-13.74127 -3.11857,-13.74127 2.06654,0 2.83212,1.14155 5.72992,8.54374 1.83958,4.69906 3.61532,8.27311 3.94609,7.94234 0.33077,-0.33077 1.98676,-4.06295 3.67997,-8.29374 2.39144,-5.97541 3.56897,-7.76366 5.27568,-8.01189 1.2084,-0.17575 2.19709,-0.0655 2.19709,0.24493 0,0.31046 -2.07182,5.74176 -4.60404,12.06955 -3.87405,9.68087 -4.9443,11.50369 -6.75,11.49634 -1.77847,-0.007 -2.86694,-1.76252 -6.35614,-10.25 z m 29.71018,-1.74127 v -12 h 8.5 c 7.83334,0 8.5,0.15687 8.5,2 0,1.77778 -0.66666,2 -6,2 h -6 v 3 c 0,2.9697 0.0556,3 5.5,3 4.83334,0 5.5,0.24243 5.5,2 0,1.75758 -0.66666,2 -5.5,2 -5.44444,0 -5.5,0.0303 -5.5,3 v 3 h 6.5 c 5.83334,0 6.5,0.20513 6.5,2 0,1.85185 -0.66666,2 -9,2 h -9 z m 31,0 c 0,-11.33333 0.11111,-12 2,-12 1.86671,0 2.00001,0.66667 2.00001,10 v 10 h 6 c 5.3333,0 6,0.22222 6,2 0,1.83334 -0.6667,2 -8,2 h -8.00001 z m 46.47781,10.96416 c -0.3777,-0.61122 -0.3656,-6.0282 0.027,-12.03773 l 0.7138,-10.92643 h 8.464 c 7.5214,0 8.4269,0.19492 8.1307,1.75 -0.2674,1.40383 -1.5677,1.80889 -6.5733,2.04772 -6.177,0.29471 -6.24,0.32751 -6.24,3.25 0,2.94564 0.014,2.95228 6.0734,2.95228 5.2443,0 6.0278,0.23887 5.7402,1.75 -0.2627,1.38044 -1.5452,1.81334 -6.0733,2.04991 -5.6006,0.2926 -5.7403,0.37057 -5.7403,3.20431 0,2.88981 0.034,2.90589 6.75,3.20009 5.2019,0.22788 6.75,0.63971 6.75,1.79569 0,1.19583 -1.7576,1.55835 -8.6676,1.78773 -5.5739,0.18503 -8.9129,-0.10893 -9.3545,-0.82357 z m 32.2184,-0.14438 c -3.2388,-1.1809 -3.3684,-4.49809 -0.1579,-4.03968 1.0789,0.15405 3.5554,0.53822 5.5032,0.8537 2.5285,0.40953 3.9118,0.12741 4.8361,-0.98629 1.8771,-2.26178 0.764,-3.31906 -5.3721,-5.10289 -7.7282,-2.24664 -9.6578,-6.48327 -5.051,-11.09007 4.2417,-4.24168 15.7508,-2.75904 14,1.80352 -0.5166,1.34609 -1.0644,1.48589 -2.6007,0.66371 -1.0704,-0.57288 -3.3879,-0.90214 -5.15,-0.73169 -2.4338,0.23543 -3.2038,0.79057 -3.2038,2.30991 0,1.49519 1.1667,2.37862 4.6221,3.5 6.0185,1.95314 7.8779,3.61712 7.8779,7.04987 0,5.64668 -7.6901,8.54603 -15.3038,5.76991 z m 29.0538,0.0179 c -2.9633,-1.08227 -3.2029,-1.57386 -1.8271,-3.74729 0.7361,-1.16272 1.4151,-1.19306 3.8772,-0.17321 4.2871,1.77574 8.6999,1.08095 8.6999,-1.36977 0,-1.42713 -1.2921,-2.41484 -4.8017,-3.67047 -6.2802,-2.24688 -7.6983,-3.52907 -7.6983,-6.96047 0,-5.73784 7.2083,-8.68882 14.4751,-5.92596 2.2313,0.84832 2.45,1.28091 1.5231,3.01271 -0.859,1.60514 -1.4724,1.81332 -2.9745,1.00946 -2.7136,-1.45229 -6.5835,-1.24813 -7.9682,0.42038 -0.9555,1.15129 -0.7338,1.71782 1.1276,2.88103 1.2743,0.79637 3.5658,1.73792 5.0923,2.09234 3.5149,0.81609 6.7246,3.98493 6.7246,6.63899 0,1.125 -1.1046,3.15 -2.4546,4.5 -2.6769,2.67689 -8.5086,3.22317 -13.7954,1.29226 z m 28.25,-10.83772 v -12 h 9 c 8.3333,0 9,0.14815 9,2 0,1.79487 -0.6667,2 -6.5,2 h -6.5 v 3 c 0,2.9697 0.056,3 5.5,3 4.8333,0 5.5,0.24243 5.5,2 0,1.75758 -0.6667,2 -5.5,2 -5.4445,0 -5.5,0.0303 -5.5,3 v 3 h 6.5 c 5.8333,0 6.5,0.20513 6.5,2 0,1.85185 -0.6667,2 -9,2 h -9 z m 31,0 c 0,-11.10965 0.1405,-12 1.8941,-12 1.1836,0 4.0905,2.87045 7.75,7.65293 l 5.8559,7.65293 0.2932,-7.71682 c 0.2779,-7.31351 0.4086,-7.70041 2.5,-7.40293 2.1296,0.30291 2.2068,0.71618 2.2068,11.81389 0,10.75042 -0.1304,11.51622 -2,11.74875 -1.4751,0.18346 -3.5747,-1.89042 -8,-7.90207 l -6,-8.1508 -0.2905,8.15206 c -0.2611,7.3305 -0.4879,8.15206 -2.25,8.15206 -1.8372,0 -1.9595,-0.74922 -1.9595,-12 z m 40,2.06955 v -10.06955 h -4 c -3.3333,0 -4,-0.33333 -4,-2 0,-1.86666 0.6667,-2 10,-2 9.3333,0 10,0.13334 10,2 0,1.61507 -0.6667,2 -3.4638,2 h -3.4638 l -0.2862,9.75 c -0.2715,9.24932 -0.4018,9.76641 -2.5362,10.06955 -2.2055,0.31324 -2.25,0.12052 -2.25,-9.75 z m 24,-2.06955 v -12 h 2.5 2.5 v 12 12 h -2.5 -2.5 z m 17.3648,9.68271 c 0.3199,-1.27451 2.6184,-6.70583 5.1079,-12.06961 5.9184,-12.75145 7.0004,-12.71908 12.9335,0.3869 5.9791,13.20752 6.1878,14 3.6869,14 -1.2572,0 -2.6379,-1.15279 -3.5931,-3 -1.4319,-2.76898 -1.9654,-3 -6.9279,-3 -5.0748,0 -5.4351,0.16833 -6.4223,3 -0.7268,2.08488 -1.7048,3 -3.2062,3 -1.7597,0 -2.0525,-0.42983 -1.5788,-2.31729 z m 14.6352,-8.21483 c 0,-1.15376 -3.0497,-7.75016 -3.408,-7.37142 -0.21,0.22195 -1.0812,2.09104 -1.9359,4.15354 l -1.5541,3.75 h 3.449 c 1.897,0 3.449,-0.23945 3.449,-0.53212 z m 21,-1.53743 c 0,-11.94554 0.023,-12.06623 2.25,-11.74676 1.7526,0.25142 2.1807,0.87475 1.9364,2.81955 -0.1725,1.37322 -0.022,5.75926 0.3353,9.74676 l 0.6489,7.25 h 5.9147 c 5.248,0 5.9147,0.22543 5.9147,2 0,1.84314 -0.6667,2 -8.5,2 h -8.5 z m 29.75,10.90727 c -2.9726,-1.08568 -3.2045,-1.57103 -1.8063,-3.78086 0.7446,-1.17687 1.3962,-1.22299 3.5317,-0.25 3.5359,1.61104 7.0225,1.50299 8.4882,-0.26305 1.7216,-2.07439 0.5661,-3.32595 -4.2558,-4.60966 -2.3143,-0.61611 -4.9953,-1.82308 -5.9578,-2.68216 -2.3437,-2.0919 -2.2169,-6.78506 0.25,-9.25199 3.4494,-3.44938 14,-2.24626 14,1.59646 0,1.24246 -0.838,1.40042 -4.5091,0.84991 -8.3983,-1.25941 -9.5789,3.37576 -1.4194,5.57288 4.9093,1.32194 6.9285,3.3772 6.9285,7.05218 0,6.01811 -7.1541,8.72319 -15.25,5.76629 z m -568.75001,-9.83772 c 0,-1.95959 0.66667,-2 33,-2 32.33334,0 33,0.0404 33,2 0,1.9596 -0.66666,2 -33,2 -32.33333,0 -33,-0.0404 -33,-2 z m 615.00001,0 c 0,-1.95238 0.6667,-2 28,-2 27.3334,0 28,0.0476 28,2 0,1.95238 -0.6666,2 -28,2 -27.3333,0 -28,-0.0476 -28,-2 z M 617.5697,643.61932 c -12.57704,-2.50072 -23.83721,-8.53123 -32.8843,-17.61159 -12.11696,-12.1615 -17.53929,-24.87425 -18.35103,-43.02433 -0.91248,-20.40261 4.81746,-36.08006 18.18282,-49.74921 12.22572,-12.50361 25.35064,-18.30373 43.65982,-19.29399 19.23248,-1.04021 33.1334,3.81586 45.15278,15.77341 l 6.75,6.71528 v -10.39656 -10.39655 h 11 11 v 63.5 63.5 h -11 -11 V 631.9415 621.24722 l -2.49463,3.38129 c -5.95617,8.07314 -18.43501,15.83508 -29.7451,18.5017 -6.6483,1.5675 -23.47899,1.83945 -30.27036,0.48911 z m 31.80926,-20.99422 c 7.29813,-2.25417 16.71253,-8.67123 21.01281,-14.32279 13.65256,-17.94265 12.16559,-45.90324 -3.26161,-61.33045 -21.31823,-21.31823 -59.86012,-16.1458 -73.13184,9.81451 -7.37714,14.43015 -6.50181,34.47352 2.09027,47.86312 5.59534,8.71958 16.66774,16.734 26.27263,19.01666 6.61582,1.57229 20.25873,1.0466 27.01774,-1.04105 z m 268.16884,20.13334 c -14.4959,-3.56648 -25.9535,-10.52556 -35.2696,-21.42184 -22.4261,-26.23019 -19.21,-68.55743 6.9547,-91.53036 18.5344,-16.27346 51.0516,-21.0062 73.552,-10.70517 22.9135,10.49012 36.2949,31.9457 36.2949,58.19468 v 9.34003 l -2.75,0.10808 c -1.5125,0.0594 -25.8731,0.0402 -54.1347,-0.0429 l -51.3846,-0.15095 0.6731,4.29287 c 1.7114,10.91347 10.6099,23.26042 20.2404,28.08416 10.1026,5.06021 14.5616,5.94341 27.6682,5.48036 14.6692,-0.51826 19.988,-2.3231 30.5416,-10.36372 3.904,-2.97435 7.3663,-5.40792 7.6941,-5.40792 0.859,0 14.4519,11.28339 14.4519,11.9965 0,0.82427 -6.6341,6.9954 -11.6405,10.8282 -6.0521,4.63337 -17.9014,9.97205 -25.8882,11.66386 -9.5248,2.01761 -28.0606,1.83432 -37.0033,-0.3659 z m 58.9817,-75.87266 c -2.994,-13.99304 -10.5901,-23.60597 -23.4023,-29.61599 -5.5523,-2.60446 -8.0085,-3.13087 -16.1604,-3.46344 -19.7501,-0.80573 -33.7835,6.77651 -41.7496,22.55728 -1.6369,3.24262 -3.2875,7.55539 -3.6681,9.58392 l -0.6919,3.68823 h 43.1303 43.1304 z m 94.1608,75.773 c -10.7308,-2.89191 -20.5412,-8.25841 -28.4025,-15.53674 -15.2519,-14.12093 -22.1397,-31.06527 -20.8932,-51.39849 1.0647,-17.36768 6.9301,-30.35514 19.1942,-42.5004 5.338,-5.28626 9.5758,-8.3778 15.6551,-11.42064 12.5502,-6.28158 18.9651,-7.67974 34.8359,-7.59261 11.8349,0.065 14.5029,0.40488 21.6305,2.75576 21.3985,7.05774 38.3596,25.08278 43.8788,46.63119 2.0831,8.13307 2.109,23.56137 0.054,32.42073 -4.0537,17.47911 -16.6346,32.76738 -33.7057,40.95903 -5.1469,2.46976 -12.5968,5.20342 -16.5554,6.07482 -9.909,2.18125 -26.832,1.99508 -35.6921,-0.39265 z m 31.2749,-19.08289 c 22.2052,-5.11922 36.6364,-27.15867 33.2295,-50.74866 -3.3585,-23.25577 -21.9927,-39.19145 -45.8279,-39.19145 -17.735,0 -33,9.63939 -41.0916,25.94814 -3.6687,7.39426 -3.6954,7.53893 -3.6954,20 0,11.98024 0.1415,12.84788 3.1063,19.05186 7.9654,16.66815 22.7875,25.96181 41.3937,25.95446 4.675,-0.002 10.4734,-0.4583 12.8854,-1.01435 z m -717.39774,17.84282 c -0.26116,-0.70561 -0.36523,-35.37041 -0.23125,-77.03289 l 0.24358,-75.74997 -31.25,-3e-5 -31.25,-4e-5 v -11 -11 h 74 74 v 11 11 H 439.086 408.09221 l -0.25621,76.75 -0.25621,76.75 -11.26875,0.28293 c -8.46382,0.2125 -11.38694,-0.0364 -11.74358,-1 z m 90.75486,-62.00011 0.25747,-63.28282 h 11 11 l 0.55426,10.5 c 0.30484,5.775 0.64234,9.98617 0.75,9.35816 0.37352,-2.1789 9.21621,-11.1628 14.02397,-14.24793 9.48601,-6.08716 23.01517,-9.10989 34.40482,-7.68685 l 5.43421,0.67896 -0.45618,10.69883 c -0.2509,5.88436 -0.53976,10.80007 -0.64192,10.9238 -0.10216,0.12372 -2.97202,-0.2932 -6.37745,-0.92651 -11.97588,-2.22715 -26.48663,2.59072 -35.03912,11.63372 -5.24423,5.545 -6.85482,8.1911 -9.77992,16.06782 -1.64568,4.43151 -1.91455,9.20684 -2.36473,42 l -0.50794,37 -11.25747,0.28282 -11.25746,0.28282 z m 303.42728,62.46718 c -0.2465,-0.4125 -4.8097,-10.425 -10.1403,-22.25 -5.3307,-11.825 -11.866,-26.225 -14.523,-32 -13.72943,-29.84112 -31.00651,-69.49724 -31.00651,-71.16927 0,-0.49181 5.23841,-0.76742 11.6409,-0.61246 l 11.64091,0.28173 13.1592,30 c 7.2376,16.5 16.9617,38.8874 21.6091,49.74978 4.6475,10.86238 8.7156,19.74988 9.0403,19.75 0.3247,1.2e-4 2.5549,-4.61228 4.956,-10.24978 2.401,-5.6375 12.1267,-28.025 21.6126,-49.75 l 17.2471,-39.5 11.2126,-0.2843 c 6.167,-0.15636 11.5297,0.0686 11.9171,0.5 0.8153,0.9077 -11.2951,28.30163 -44.0023,99.5343 l -12.2825,26.75 h -10.8165 c -5.9491,0 -11.0182,-0.3375 -11.2647,-0.75 z m 409.3302,-62.78383 v -63.53383 l 10.75,0.28383 10.75,0.28383 0.2861,10.35022 0.2861,10.35022 2.9806,-4.11454 c 3.9047,-5.39031 13.5476,-12.41845 20.7225,-15.10334 8.7917,-3.28996 15.7971,-4.25864 26.7247,-3.69545 21.4122,1.10354 37.5001,11.36184 46.8309,29.8613 6.1687,12.2304 6.6322,16.42029 6.6518,60.13434 l 0.017,38.78275 -11.25,-0.28275 -11.25,-0.28275 -0.5161,-39.5 c -0.4605,-35.2361 -0.7168,-40.03973 -2.3743,-44.5 -5.4871,-14.76502 -16.7206,-22.95624 -33.2182,-24.22193 -16.5478,-1.26952 -33.26,7.57829 -39.8828,21.11484 -4.8173,9.84624 -5.4724,16.21153 -5.4912,53.35709 l -0.017,34.25 h -11 -11 z M 526.28632,480.51622 c 0.77109,-2.31329 51.80029,-23.00027 78.79347,-31.94249 37.86466,-12.54369 83.56879,-22.43759 131,-28.35853 47.42671,-5.92037 51.80831,-6.10569 136.50001,-5.7732 77.8921,0.3058 86.5029,0.058 117.2583,-3.37492 21.5624,-2.40677 47.1392,-7.33742 63.5332,-12.24781 5.6863,-1.70317 9.6407,-2.46126 9.4316,-1.80814 -0.547,1.70925 -23.6443,10.08116 -38.7792,14.05604 -28.9686,7.60803 -48.9164,10.7361 -86.9439,13.6339 -7.425,0.56581 -42.75,1.4384 -78.5,1.93911 -68.9589,0.96581 -83.9646,1.65849 -119.00001,5.49313 -49.51678,5.41964 -92.54929,13.0784 -135,24.02678 -16.59923,4.28108 -59.71408,17.92915 -72.31736,22.89217 -3.47455,1.36824 -6.1638,2.02702 -5.97611,1.46396 z m 572.29348,-10.43727 c -30.2568,-11.64937 -70.8073,-22.69303 -113.9824,-31.04239 -26.3211,-5.09006 -27.0079,-5.24379 -26.3532,-5.89855 0.2479,-0.24788 5.5998,-1.18075 11.8932,-2.07304 l 11.4424,-1.62234 17.2572,4.61366 c 20.687,5.53063 45.6145,13.54656 68.7428,22.10562 20.3482,7.53025 38.3917,14.96552 39.8456,16.41941 1.4477,1.44776 1.3208,1.41186 -8.8456,-2.50237 z m 22.6875,-53.69317 c -1.076,-2.8875 -4.2859,-11.79306 -7.1332,-19.79014 -2.8473,-7.99708 -5.5235,-15.10104 -5.9472,-15.78659 -0.561,-0.9077 -4.0093,0.59792 -12.6887,5.54014 l -11.9184,6.78659 -0.2918,7.73721 c -0.2489,6.5988 -0.5926,7.89814 -2.3357,8.83102 -1.1241,0.6016 -2.2367,0.90091 -2.4724,0.66514 -0.2358,-0.23576 -1.4742,-3.53472 -2.7519,-7.33102 -1.8192,-5.405 -2.7923,-6.97167 -4.4857,-7.2219 -2.2627,-0.33435 -2.925,-1.75962 -1.1003,-2.36784 0.5842,-0.19473 -1.8908,-2.72043 -5.5,-5.61267 -3.6092,-2.89223 -6.5622,-5.61936 -6.5622,-6.06029 0,-0.44093 1.0785,-1.3789 2.3967,-2.08439 2.0898,-1.11842 3.4007,-0.89511 10.2351,1.74362 l 7.8384,3.02633 5.0149,-3.62365 c 13.4362,-9.70865 15.5114,-11.31651 15.4657,-11.9831 -0.048,-0.70554 -13.2743,-11.8655 -25.7392,-21.71846 l -6.3255,-5 3.2692,-2.75 c 1.798,-1.5125 3.6695,-2.75 4.1588,-2.75 0.4893,0 7.0314,2.66141 14.5378,5.91424 7.5065,3.25283 17.5954,7.49652 22.4199,9.43042 l 8.7718,3.51618 10.1572,-6.44007 c 11.3056,-7.16822 16.2057,-8.97714 20.2018,-7.45782 2.1034,0.79972 2.5974,1.64333 2.5974,4.43538 0,4.41736 -2.8499,7.3028 -14.9371,15.12337 l -9.2398,5.9783 0.5953,10 c 0.3274,5.5 0.8879,16.42662 1.2455,24.28138 l 0.6502,14.28138 -2.8441,2.96862 c -1.5643,1.63274 -3.4026,2.96862 -4.0852,2.96862 -0.6826,0 -2.1214,-2.3625 -3.1973,-5.25 z m -467.20543,-1.5 c 11.9598,-39.03936 37.1119,-74.44032 69.51792,-97.84476 10.69013,-7.72068 33.29281,-19.11874 46.32291,-23.35962 41.5881,-13.53567 85.0969,-11.36469 124.0673,6.19062 18.4205,8.29806 33.3388,18.8231 49.1581,34.68175 15.6666,15.70549 25.7056,29.92748 34.9988,49.58201 6.5113,13.77091 7.1909,15.5 6.0924,15.5 -0.4387,0 -1.8871,-2.33598 -3.2186,-5.19106 -3.6711,-7.87185 -16.7432,-27.30717 -24.508,-36.43813 -15.7552,-18.52727 -34.5579,-33.65247 -54.4129,-43.77074 -17.8437,-9.0933 -37.1177,-15.43275 -52,-17.10348 -3.025,-0.3396 -6.625,-0.85033 -8,-1.13496 -2.0885,-0.43233 -1.8416,-0.0376 1.5,2.39814 9.8102,7.15081 21.0908,22.06228 29.0947,38.45945 2.7478,5.62928 2.8791,5.73564 8.3485,6.76407 17.2501,3.24357 37.2952,8.99402 53.0568,15.22067 10.2675,4.05623 30,13.906 30,14.975 0,0.47982 -1.2965,0.20194 -2.8812,-0.6175 -11.0743,-5.72674 -48.9933,-16.22018 -70.4235,-19.48849 -10.7468,-1.63899 -11.7456,-1.65572 -11.1455,-0.18665 2.4087,5.89701 8.53,31.44341 9.9113,41.36368 l 0.6614,4.75 h -3.3771 -3.3772 l -3.1753,-12.83167 c -1.7465,-7.05742 -4.8972,-17.96992 -7.0017,-24.25 l -3.8263,-11.41833 -4.9325,-0.68759 c -11.5119,-1.60477 -55.4753,-2.11551 -72.1272,-0.83792 -9.2428,0.70914 -17.7937,1.65973 -19.0019,2.11242 -1.7615,0.66 -3.0751,3.55615 -6.6304,14.61808 -2.4385,7.58726 -5.5,18.37838 -6.8033,23.98028 -2.3594,10.14152 -2.384,10.18797 -5.7218,10.81448 -1.8437,0.34607 -3.5274,0.454 -3.7416,0.23984 -0.6972,-0.69725 4.5112,-26.09847 7.6257,-37.19032 1.6701,-5.94777 2.9086,-10.92142 2.7523,-11.05254 -0.1563,-0.13112 -6.1342,0.77585 -13.2842,2.01548 -17.71557,3.07144 -37.6484,8.36547 -51.75001,13.74447 -6.4625,2.4651 -11.75,4.19112 -11.75,3.8356 0,-0.9701 15.03027,-8.29194 27.64623,-13.46757 12.98748,-5.32805 34.62788,-12.00819 45.86678,-14.15854 4.3216,-0.82687 7.9324,-1.60753 8.0239,-1.73479 0.091,-0.12726 1.3149,-2.7789 2.7187,-5.89253 6.6546,-14.75977 17.1356,-29.68393 25.3546,-36.10301 2.9774,-2.32538 4.9576,-4.37988 4.4006,-4.56557 -1.7866,-0.59551 -25.887,5.84823 -35.3531,9.45237 -37.09532,14.12367 -68.72067,40.86869 -90.16308,76.24935 -5.75156,9.49026 -12.67123,23.113 -15.6845,30.87801 -1.83929,4.73977 -4.20495,5.99452 -2.82805,1.5 z M 799.5798,339.64589 c 15.4018,-1.25582 32.3958,-1.25241 49.9053,0.01 7.6479,0.55141 14.1185,0.78944 14.3789,0.52894 0.7816,-0.78153 -6.3246,-14.97857 -10.8817,-21.74015 -6.7768,-10.05496 -10.8826,-14.6846 -16.7477,-18.88448 l -5.4804,-3.92444 h -10.2606 c -10.2122,0 -10.2834,0.017 -15.0872,3.58966 -2.6546,1.97432 -6.5213,5.46182 -8.5927,7.75 -4.8267,5.33208 -14.1737,20.22526 -17.8857,28.49869 l -2.8822,6.42383 5.767,-0.63681 c 3.1718,-0.35024 11.167,-1.07711 17.767,-1.61526 z"
       id="path1" />
  </g>
</svg>
